<svg xmlns="http://www.w3.org/2000/svg" width="90" height="26" viewBox="0 0 90 26">
    <g fill="#AEAEAE" fill-rule="nonzero">
        <path d="M48.887 16.608c0 2.767-3.445 2.603-3.445 2.603h-3.445V14.21h3.445c3.548-.02 3.445 2.398 3.445 2.398zm-6.89-10.023h2.625c2.727.144 2.625 2.173 2.625 2.173 0 2.52-3.015 2.562-3.015 2.562h-2.235V6.585zm6.255 5.719s2.358-1.005 2.338-3.67c0 0 .358-4.365-5.43-4.898h-6.424V22.04h7.362s6.153.02 6.153-5.166c0 0 .143-3.525-4-4.57zM31.63.149h27.04v25.468H31.63V.15zM17.706 16.608c0 2.767-3.445 2.603-3.445 2.603h-3.445V14.21h3.445c3.548-.02 3.445 2.398 3.445 2.398zm-6.89-10.023h2.625c2.727.144 2.624 2.173 2.624 2.173 0 2.52-3.014 2.562-3.014 2.562h-2.235V6.585zm6.254 5.719s2.359-1.005 2.338-3.67c0 0 .359-4.365-5.43-4.898H7.556V22.04h7.362s6.152.02 6.152-5.166c0 0 .144-3.525-3.999-4.57zM.45.149h27.039v25.468H.448V.15zM84.334 5.048V8.43s-3.302-2.029-6.952-2.07c0 0-6.808-.133-7.116 6.523 0 0-.246 6.124 7.034 6.472 0 0 3.056.369 7.198-2.275v3.505s-5.557 3.3-11.997.758c0 0-5.414-1.977-5.619-8.46 0 0-.225-6.666 6.993-8.88 0 0 1.928-.738 5.394-.41 0 0 2.07.205 5.065 1.455zm-21.523 20.57h27.04V.148H62.81v25.468z"/>
    </g>
</svg>
