<svg xmlns="http://www.w3.org/2000/svg" width="97" height="26" viewBox="0 0 97 26">
    <path fill="#AEAEAE" fill-rule="nonzero" d="M23.979 25.922c-1.692-.252-3.172-.986-4.302-2.131-.943-.956-1.554-2.007-2.005-3.447-.703-2.249-.704-5.14 0-7.343.68-2.134 2.215-3.992 4.093-4.957 2.6-1.336 6.26-1.252 8.668.199 2.167 1.305 3.48 3.626 3.845 6.795.111.968.04 3.012-.137 3.856-.718 3.454-2.812 5.867-5.88 6.776a9.67 9.67 0 0 1-1.139.255c-.626.089-2.537.087-3.143-.003zm1.014-1.282c.462.215 1.308.203 1.786-.025 1.318-.628 2.025-2.436 2.255-5.77.321-4.645-.423-8.522-1.897-9.886-.664-.614-1.697-.815-2.442-.475-1.087.496-1.785 1.963-2.115 4.446-.236 1.768-.211 5.377.047 7 .407 2.56 1.22 4.178 2.366 4.71zm28.957 1.28c-.692-.07-2.808-.431-3.547-.603l-.511-.12.04-2.794c.096-6.728.108-10.401.045-13.973-.06-3.5-.078-3.87-.21-4.387-.167-.656-.408-1.113-.698-1.324-.113-.082-.419-.199-.68-.259-.87-.2-.822-.168-.845-.573-.013-.234.011-.389.07-.436.078-.063 7.205-1.455 7.432-1.451.065.001.074.934.04 4.144-.023 2.279-.026 4.143-.006 4.143.02 0 .28-.115.579-.256.899-.426 1.728-.61 2.931-.653.802-.029 1.173-.01 1.584.076 2.689.57 4.678 2.822 5.373 6.083.182.85.249 2.965.129 4.024-.103.903-.396 2.12-.7 2.908-1.15 2.979-3.617 4.921-6.89 5.426-.754.117-3.12.131-4.136.026zm1.453-1.256c.63.068 1.337.044 1.667-.056.512-.156 1.166-.631 1.56-1.134.813-1.038 1.397-2.644 1.717-4.726.154-.996.175-3.797.034-4.604-.43-2.475-1.26-3.988-2.522-4.6-.629-.305-1.515-.343-2.339-.1l-.558.165-.064 2.25c-.08 2.836.05 12.533.17 12.68.043.054.194.11.335.125zm18.61 1.222c-3.462-.64-5.938-3.153-6.747-6.848-.104-.476-.15-1.007-.176-2.037-.042-1.628.088-2.638.498-3.894.788-2.41 2.2-4.119 4.252-5.142 2.166-1.081 5.127-1.152 7.043-.169 2.158 1.107 3.428 3.317 3.75 6.527.044.432.069.946.056 1.143l-.023.357-5.164.018-5.164.018.02.625c.045 1.447.35 2.726.911 3.839.256.506.46.781.953 1.292 1.116 1.153 2.226 1.6 3.978 1.6 1.27 0 2.183-.26 3.138-.892.268-.177.539-.322.602-.322.146 0 .482.443.482.635 0 .315-1.001 1.33-1.978 2.005-.8.553-2.068 1.054-3.168 1.25-.77.138-2.5.135-3.263-.005zm-1.804-11.44c.038.064 3.166.022 4.623-.061l.726-.042-.042-1.117c-.086-2.264-.518-3.793-1.273-4.505-.28-.265-.659-.433-.979-.433-.08 0-.313.05-.52.113-.3.092-.468.21-.836.59-.685.705-1.182 1.852-1.493 3.439-.129.659-.259 1.93-.206 2.017zm15.76 11.509c-1.243-.137-3.221-.58-3.88-.87l-.322-.141-.044-1.632a354.91 354.91 0 0 1-.062-2.667l-.018-1.035.193-.094c.106-.052.32-.1.476-.108l.283-.014.24.607c.941 2.369 2.044 3.646 3.484 4.035.55.148 1.58.149 1.986.002 1.14-.412 1.764-1.295 1.77-2.5.006-1.43-.761-2.116-3.66-3.275-1.795-.717-2.421-1.087-3.167-1.868-.804-.843-1.19-1.803-1.263-3.139-.088-1.615.406-2.976 1.5-4.136 1.101-1.167 2.53-1.8 4.478-1.982 1.714-.16 4.346.212 5.725.81l.252.109.045 1.454c.024.8.05 1.873.056 2.383l.012.929-.338.128c-.534.203-.569.178-.866-.628-.833-2.259-1.8-3.328-3.309-3.654-.919-.2-1.686.015-2.244.625-.435.477-.605.9-.646 1.61-.045.77.09 1.185.549 1.7.566.634 1.494 1.181 3.341 1.972 2.264.968 3.344 1.79 3.93 2.99.382.781.49 1.404.452 2.603-.03.9-.057 1.085-.257 1.69-.652 1.97-2.125 3.267-4.399 3.875-.77.206-.88.216-2.412.233-.883.01-1.73.005-1.884-.012zm-75.471-.99c0-.215-.019-.392-.042-.392-.332 0-1.882-.342-2.13-.47-.887-.457-1.297-1.543-1.456-3.855-.113-1.644-.225-6.474-.152-6.549.066-.068 3.017.053 3.361.137.954.234 1.689 1.194 2.057 2.686l.162.658.426.021.426.022V8.93h-.454c-.424 0-.453.01-.453.161 0 .27-.265 1.127-.516 1.667-.392.846-.945 1.357-1.648 1.522-.172.041-.988.107-1.811.146-1.162.055-1.51.051-1.555-.016-.08-.125.104-9.53.196-9.966l.035-.165 2.562.022 2.562.022.596.218c1.381.507 2.375 1.54 3.206 3.335.186.403.425.99.53 1.304.106.314.2.581.209.594.008.012.237-.047.509-.132l.494-.153-.035-2.333c-.02-1.283-.053-2.823-.075-3.422l-.04-1.09H0l.02.446.022.447.628.08c.837.107 1.145.2 1.482.45.511.38.826.937 1.024 1.814.308 1.364.418 4.438.367 10.192-.054 6.08-.129 7.345-.508 8.571-.311 1.01-.89 1.544-1.848 1.706a21.45 21.45 0 0 0-.83.158l-.35.077v.774h12.491v-.393zm21.856.547c-.063-.041-.084-.206-.07-.553l.022-.493.244-.053c.134-.03.423-.088.641-.13.676-.129 1.064-.504 1.283-1.24.178-.599.256-2.515.26-6.363.005-4.706-.09-5.818-.556-6.448-.252-.341-.433-.438-1.045-.559l-.705-.14c-.14-.03-.157-.077-.157-.427 0-.34.02-.402.157-.46.209-.087 7.122-1.502 7.343-1.502h.172l-.034 1.054c-.019.58-.048 1.423-.066 1.875l-.032.821.25-.462c.802-1.48 1.701-2.399 2.897-2.96.656-.307 1.094-.4 1.905-.4.961 0 1.923.322 1.923.643 0 .216-1.694 4.799-1.788 4.835-.045.018-.376-.111-.735-.288-.748-.367-1.45-.547-2.132-.545-.848.002-1.796.322-2.17.732-.16.176-.161.187-.2 2.811-.04 2.599.044 5.77.187 7.044.122 1.086.404 1.621.986 1.87.194.083 1.424.256 1.825.256.03 0 .046.25.035.554l-.02.553-5.165.017c-2.84.01-5.205-.01-5.255-.042z"/>
</svg>
