<svg xmlns="http://www.w3.org/2000/svg" width="118" height="26" viewBox="0 0 118 26">
    <path fill="#AEAEAE" fill-rule="nonzero" d="M110.467.146l-.04.008-5.052.379-.04.008v1.352h.682c.203 0 .347.046.446.17.1.124.155.338.155.684v20.81c0 .283-.03.457-.114.555-.085.098-.234.137-.487.137H105.782v1.32h.04v.04h5.482v-1.36H110.914c-.206 0-.319-.023-.373-.08-.055-.058-.074-.166-.074-.355V11.59c0-.78.069-1.47.3-1.957.233-.488.62-.781 1.3-.781.245 0 .436.04.577.112.141.073.237.18.309.33.143.303.17.78.17 1.434v12.99c0 .232-.057.36-.146.434-.089.074-.216.097-.39.097H112.19v1.36h5.652v-1.36H117.509c-.221 0-.354-.03-.43-.113-.077-.082-.106-.23-.106-.483V10.027c0-1.154-.21-2.056-.715-2.665-.504-.61-1.303-.918-2.453-.918-1.456 0-2.507.83-3.338 2.086V.146zm-.08.089V8.795l.08-.12c.833-1.302 1.874-2.15 3.338-2.15 1.135 0 1.902.306 2.388.893.486.588.699 1.465.699 2.61v13.625c0 .259.03.43.13.54.1.108.258.136.487.136h.252v1.2h-5.49v-1.2h.316c.181 0 .334-.019.447-.112.113-.094.17-.254.17-.5V10.728c0-.656-.023-1.138-.178-1.466a.758.758 0 0 0-.341-.37c-.158-.082-.364-.12-.618-.12-.704 0-1.13.311-1.372.82-.243.51-.309 1.213-.309 1.998v12.224c0 .194.016.325.098.41.082.087.218.105.43.105h.309v1.2h-5.353v-1.2h.147c.262 0 .444-.035.552-.16.108-.126.138-.322.138-.613V2.747c0-.355-.06-.585-.179-.732-.118-.148-.296-.202-.511-.202h-.601V.621l4.97-.386zM83.874 23.686c-1.031 0-1.127-.671-1.127-3.065 0-4.213.29-4.787 2.543-6.033v6.767c0 1.342-.225 2.331-1.416 2.331zm-61.078-9.352c.096-5.682.29-6.288 1.449-6.288 1.288 0 1.158.734 1.158 6.288h-2.607zm1.449 11.555c3.155 0 4.765-1.342 4.377-6.193h-1.35c.095 4.085-.581 4.47-2.093 4.47-2.222 0-2.383-1.151-2.383-7.917v-.575h6.148c0-6.83-1.32-9.191-4.7-9.191-3.123 0-5.537 3.287-5.537 9.83 0 7.18 2.222 9.576 5.538 9.576zm22.942 0c2.768 0 4.313-1.852 4.313-4.662 0-2.936-1.03-4.211-3.155-6.542-2.027-2.203-2.8-3.033-2.8-4.852 0-1.053.354-1.723 1.577-1.723 1.223 0 1.932.478 2.157 2.329l.225 1.788h1.417V6.802h-1.16c-.063.67-.063 1.052-.257.956-.289-.255-1.415-1.276-3.025-1.276-2.221 0-4.217 1.404-4.217 4.5 0 2.905.998 4.054 3.154 6.48 1.868 2.106 2.8 3.032 2.8 4.755 0 1.372-.385 2.139-1.834 2.139-1.224 0-2.029-.575-2.414-3.001l-.258-1.66h-1.416v5.874h1.19c.13-.607.452-1.182.741-.99a3.88 3.88 0 0 0 2.962 1.31zm26.44 0c3.154 0 4.764-1.342 4.377-6.193h-1.351c.096 4.085-.58 4.47-2.093 4.47-2.222 0-2.382-1.151-2.382-7.917v-.575h6.147c0-6.83-1.318-9.191-4.699-9.191-3.123 0-5.537 3.287-5.537 9.83 0 7.18 2.222 9.576 5.537 9.576zm8.637 0c1.9 0 2.833-1.342 3.349-2.3.321 1.469.74 2.3 2.704 2.3 2.253 0 2.767-1.342 2.767-3.958h-1.157c0 1.883-.066 2.075-.483 2.075-.388 0-.388-.16-.388-1.214V11.174c0-3.735-2.027-4.691-4.699-4.691-3.413 0-5.344 2.36-4.056 4.723.547.989 1.61 1.276 2.51.607.935-.702 1.096-2.172-1.287-3.352.322-.287 1.256-.543 1.9-.543 1.867 0 1.867.671 1.867 2.395v3.255c-4.636 1.565-6.245 2.426-6.245 7.374 0 3.83 1.48 4.947 3.218 4.947zm-53.34-.32h5.859v-1.276h-.355c-.419 0-.483-.097-.483-.479V11.59c0-1.564.257-2.777 1.642-2.777.998 0 1.095.607 1.095 1.915v12.99c0 .48-.226.576-.58.576h-.354v1.277h5.568v-1.277h-.288c-.451 0-.58-.128-.58-.639V10.025c0-2.298-.837-3.543-3.122-3.543-1.482 0-2.608.862-3.445 2.17V6.577l-4.99.351v1.277h.645c.418 0 .644.192.644.894v14.459c0 .575-.13.735-.644.735h-.612v1.277zm69.608-3.863c0 3.034.418 4.183 3.444 4.183 1.963 0 3.283-.831 3.283-3.607v-2.713h-1.383v3c0 1.118-.16 1.564-.805 1.564-.644 0-.773-.446-.773-1.436V8.205h2.897V6.802h-2.864V1.854h-1.32c-1.481 4.436-2.157 4.948-3.38 4.948h-.387v1.372h1.288v13.532zM.193 25.57h5.023v-1.277h-.773c-.709 0-1.03-.831-1.03-1.98V6.323L7.47 25.536H9.4l4.056-19.279v16.374c0 1.15-.193 1.66-.837 1.66h-.901v1.278h7.242v-1.277h-.547c-.644 0-.836-.512-.836-1.661V3.513c0-1.148.192-1.66.836-1.66h.547V.578h-6.05L9.753 16.346 6.406.576H.193v1.278h.516c.644 0 1.03.766 1.03 1.947v18.512c0 1.15-.386 1.98-1.03 1.98H.193v1.277zm51.888 0h7.307v-1.277h-.74c-.677 0-.87-.225-.87-1.342v-9.255h4.894v9.255c0 1.117-.226 1.342-.87 1.342h-.74v1.277h7.275v-1.277h-.644c-.676 0-.868-.225-.868-1.342V3.195c0-1.15.192-1.341.868-1.341h.644V.577h-7.275v1.277h.74c.644 0 .87.19.87 1.34v9H57.78v-9c0-1.15.192-1.34.869-1.34h.74V.577h-7.307v1.277h.675c.676 0 .87.19.87 1.34V23.59c0 .543-.194.703-.87.703h-.675v1.277zm39.434 0h5.955v-1.277h-.772c-.419 0-.58-.16-.58-.671V.194l-5.053.383v1.276h.707c.42 0 .58.128.58.638v21.195c0 .479-.065.607-.514.607h-.322v1.277zm14.31 0h5.44v-1.277h-.355c-.417 0-.483-.097-.483-.479V11.59c0-1.564.258-2.777 1.643-2.777.997 0 1.094.607 1.094 1.915v12.99c0 .48-.225.576-.58.576h-.353v1.277h5.568v-1.277h-.29c-.45 0-.578-.128-.578-.639V10.025c0-2.298-.838-3.543-3.123-3.543-1.481 0-2.543.862-3.38 2.17V.194l-5.055.383v1.276h.645c.417 0 .644.191.644.894v20.81c0 .576-.129.736-.644.736h-.193v1.277zM41.414 7.439c3.218-2.393 3.862-4.18 2.8-5.809C43.636.736 42.316.162 41.35.96c-1.16.958-.869 2.649 1.288 3.574-.387.448-1.288 1.341-2.028 2.043l.805.862zm30.763 6.895c.098-5.682.29-6.288 1.449-6.288 1.288 0 1.159.734 1.159 6.288h-2.608zm-34.847-7.89c-1.455 0-2.57.826-3.403 2.077V6.532l-.05.008-4.986.347h-.04v1.36h.682c.202 0 .347.046.446.17.1.123.163.338.163.684v14.455c0 .284-.037.458-.122.556-.085.098-.234.137-.487.137h-.65v1.36h5.945v-1.36H34.431c-.206 0-.319-.023-.373-.08-.055-.058-.074-.166-.074-.355V11.59c0-.78.069-1.47.301-1.957.232-.488.62-.781 1.3-.781.245 0 .435.04.576.112.141.073.237.18.309.33.143.303.17.78.17 1.434v12.99c0 .232-.05.36-.138.434-.088.074-.224.097-.398.097H35.707v1.36h5.652v-1.36H41.026c-.221 0-.346-.03-.422-.113-.077-.082-.114-.23-.114-.483V10.027c0-1.154-.21-2.056-.715-2.665-.504-.61-1.294-.918-2.444-.918zm0 .08c1.134 0 1.894.307 2.38.894.485.588.698 1.465.698 2.61v13.625c0 .259.03.43.13.54.1.108.258.136.487.136h.252v1.2h-5.49v-1.2h.316c.181 0 .334-.019.447-.112.113-.094.17-.254.17-.5V10.728c0-.656-.015-1.138-.17-1.466a.774.774 0 0 0-.35-.37c-.157-.082-.363-.12-.617-.12-.704 0-1.13.311-1.372.82-.243.51-.309 1.213-.309 1.998v12.224c0 .194.016.325.098.41.082.087.218.105.43.105h.309v1.2h-5.775v-1.2h.569c.261 0 .444-.035.552-.16.108-.126.138-.322.138-.613V9.101c0-.355-.06-.593-.179-.74-.118-.148-.296-.194-.511-.194h-.601v-1.2l4.905-.346v2.174l.082-.12c.832-1.302 1.945-2.15 3.41-2.15zm-13.085-.08c-1.576 0-2.972.831-3.971 2.48-1 1.65-1.608 4.108-1.608 7.385 0 3.595.558 5.998 1.535 7.505.977 1.507 2.376 2.118 4.044 2.118 1.584 0 2.791-.342 3.55-1.297.758-.954 1.063-2.513.869-4.944v-.04H27.227l.008.048c.049 2.04-.1 3.153-.438 3.745a1.172 1.172 0 0 1-.65.555c-.267.097-.59.121-.967.121-.551 0-.966-.067-1.283-.274-.317-.207-.54-.55-.698-1.111-.315-1.122-.358-3.108-.358-6.49v-.532h6.148v-.04c0-3.418-.33-5.72-1.088-7.176-.758-1.456-1.955-2.053-3.655-2.053zm0 .08c1.68 0 2.836.58 3.582 2.014.743 1.426 1.078 3.706 1.08 7.094h-6.147v.612c0 3.384.035 5.363.357 6.507.16.572.393.94.73 1.16.338.22.774.298 1.332.298.38 0 .709-.027.991-.13a1.28 1.28 0 0 0 .699-.595c.35-.615.49-1.738.446-3.745h1.267c.187 2.396-.119 3.925-.852 4.848-.738.929-1.913 1.256-3.485 1.256-1.647 0-3.016-.584-3.98-2.07-.962-1.485-1.518-3.878-1.518-7.464 0-3.267.604-5.714 1.592-7.345.988-1.63 2.36-2.44 3.906-2.44zm0 1.482c-.293 0-.537.04-.73.193-.194.154-.327.41-.431.846-.207.87-.276 2.45-.325 5.29v.041h2.688v-.04c0-2.777.033-4.35-.097-5.235-.065-.443-.17-.72-.35-.886-.18-.165-.429-.209-.755-.209zm0 .08c.318 0 .541.048.699.194.158.145.261.394.325.83.126.864.098 2.44.097 5.185h-2.526c.049-2.808.123-4.378.325-5.226.102-.426.234-.668.406-.805.172-.138.388-.177.674-.177zm49.381-.08c-.293 0-.538.04-.731.193-.193.154-.327.419-.43.854-.208.87-.277 2.441-.325 5.283l-.008.04h2.696v-.04c0-2.777.032-4.349-.097-5.235-.065-.443-.17-.72-.35-.886-.18-.165-.43-.209-.755-.209zm0 .08c.318 0 .54.048.698.194.158.145.262.394.325.83.127.864.098 2.44.098 5.185h-2.526c.049-2.808.123-4.378.325-5.226.101-.427.234-.668.406-.805.172-.138.388-.177.674-.177zM42.114.567c-.275.045-.54.157-.787.362-.59.487-.82 1.17-.618 1.844.199.662.807 1.314 1.86 1.78-.396.452-1.264 1.308-1.99 1.996l-.024.025.024.032.804.862.025.024.032-.016c1.612-1.2 2.586-2.253 3.022-3.214.435-.96.325-1.834-.212-2.657a2.418 2.418 0 0 0-1.307-.983 1.858 1.858 0 0 0-.829-.056zm.017.08c.261-.043.531-.02.787.056.513.152.975.513 1.26.95.524.806.628 1.638.202 2.577-.423.933-1.377 1.964-2.964 3.149l-.747-.805c.734-.698 1.614-1.57 1.998-2.014l.04-.04-.048-.024c-1.071-.46-1.676-1.104-1.868-1.748-.193-.643.015-1.285.584-1.755.236-.195.494-.303.756-.346zm54.026-.5l-.04.008-5.053.379-.04.008v1.352h.747c.205 0 .342.03.422.114.081.083.122.232.122.483v21.195c0 .238-.02.382-.081.46a.252.252 0 0 1-.138.08c-.063.018-.15.024-.26.024h-.365v1.32h.048v.04h5.994v-1.36h-.812c-.204 0-.332-.037-.414-.129-.082-.092-.13-.248-.13-.5V.147zm-.081.089v23.386c0 .26.043.44.146.555.103.116.264.153.479.153h.73v1.2H91.56v-1.2h.276c.115 0 .209-.003.284-.024a.338.338 0 0 0 .179-.112c.084-.107.097-.267.097-.508V2.49c0-.26-.042-.432-.146-.54-.104-.108-.265-.137-.479-.137h-.666V.621l4.97-.386zM52.039.533v1.36H52.754c.167 0 .308.015.414.05a.441.441 0 0 1 .244.176c.123.177.17.5.17 1.071V23.59c0 .266-.042.426-.162.523-.12.097-.331.137-.666.137H52.04v1.36h7.39v-1.36h-.78c-.166 0-.3-.012-.406-.048a.476.476 0 0 1-.251-.186c-.124-.18-.171-.506-.171-1.063v-9.22h4.808v9.22c0 .556-.06.882-.187 1.063a.468.468 0 0 1-.243.186c-.105.036-.24.048-.398.048h-.78v1.36h7.358v-1.36H67.69c-.167 0-.3-.012-.406-.048a.456.456 0 0 1-.244-.186c-.123-.18-.17-.506-.17-1.063V3.19c0-.572.048-.894.17-1.07a.441.441 0 0 1 .244-.178c.106-.034.239-.048.406-.048H68.38V.533H61.022v1.36h.78c.159 0 .293.015.398.05.105.033.18.088.243.176.127.178.187.5.187 1.071v8.963h-4.808V3.19c0-.572.048-.894.17-1.07a.441.441 0 0 1 .244-.178c.106-.034.248-.048.414-.048h.78V.533h-7.39zm.081.088h7.229v1.192h-.699c-.17 0-.318.01-.438.049a.528.528 0 0 0-.284.209c-.143.206-.187.543-.187 1.12v9.043h4.97V3.19c0-.577-.048-.914-.195-1.119a.562.562 0 0 0-.292-.21 1.407 1.407 0 0 0-.422-.048h-.699V.621H68.3v1.192h-.61c-.17 0-.31.01-.43.049a.547.547 0 0 0-.292.209c-.143.206-.187.543-.187 1.12v19.761c0 .561.045.902.187 1.112a.564.564 0 0 0 .292.217c.12.04.26.048.43.048h.61v1.2h-7.196v-1.2h.699c.163 0 .303-.007.422-.048a.58.58 0 0 0 .292-.217c.147-.21.195-.55.195-1.112V13.652h-4.97V22.951c0 .561.044.902.187 1.112a.545.545 0 0 0 .284.217c.12.04.267.048.438.048h.699v1.2H52.12v-1.2h.634c.341 0 .568-.034.715-.153.146-.118.203-.311.203-.587V3.19c0-.576-.052-.913-.195-1.119a.528.528 0 0 0-.284-.21 1.496 1.496 0 0 0-.439-.048h-.634V.621zM.15.533v1.36h.56c.305 0 .55.178.722.508.173.33.268.815.268 1.401v18.514c0 .57-.095 1.059-.268 1.401-.173.343-.419.532-.722.532H.149v1.36h5.109v-1.36h-.812c-.339 0-.583-.19-.748-.532-.164-.342-.243-.83-.243-1.4v-15.6l3.971 18.828.008.033h1.998l.008-.033 3.972-18.852V22.63c0 .573-.047.988-.17 1.248-.124.26-.307.37-.618.37H11.673v1.361H19v-1.36H18.416c-.311 0-.502-.11-.625-.37-.124-.26-.17-.676-.17-1.249V3.513c0-.573.046-.98.17-1.24.123-.26.314-.38.625-.38H18.999V.534h-6.123l-.008.032-3.11 15.575L6.442.565V.533H.15zM.237.62h6.14l3.339 15.712v.016h.08v-.016L12.942.62h5.978v1.192h-.504c-.333 0-.565.137-.698.42-.134.281-.18.703-.18 1.28V22.63c0 .577.046.998.18 1.28.133.283.365.42.698.42h.504v1.2h-7.156v-1.2h.861c.333 0 .557-.137.69-.42.135-.282.187-.703.187-1.28V6.26h-.04l-.04-.008v.008h-.009v.032L9.367 25.497H7.5L3.455 6.323v-.008l-.04.008h-.042V22.316c0 .579.079 1.073.252 1.434.174.36.45.58.82.58h.731v1.2H.238v-1.2H.71c.34 0 .614-.22.795-.58.182-.36.277-.855.277-1.434V3.802c0-.595-.095-1.093-.277-1.441-.181-.348-.457-.548-.795-.548H.238V.621zm100.743 1.192l-.008.024c-.74 2.217-1.277 3.457-1.779 4.132-.5.674-.954.789-1.559.789h-.43v1.457h1.29v13.49c0 1.517.1 2.572.594 3.253.493.68 1.373.974 2.891.974.988 0 1.818-.217 2.404-.781.586-.565.918-1.472.918-2.867V19.53h-1.471v3.036c0 .556-.038.944-.153 1.184-.115.239-.297.338-.61.338-.312 0-.477-.099-.584-.322-.107-.224-.146-.578-.146-1.071V8.248h2.899v-1.49h-2.867V1.814h-1.389zm.065.08h1.243v4.945h2.867v1.33h-2.9v14.527c0 .497.036.864.155 1.111.118.247.326.362.657.362.332 0 .556-.115.683-.378.126-.263.17-.664.17-1.224V19.61h1.3v2.674c0 1.382-.329 2.266-.894 2.81-.565.545-1.37.75-2.347.75-1.507 0-2.354-.283-2.826-.935-.473-.652-.577-1.691-.577-3.205V8.135h-1.291V6.838h.349c.617 0 1.111-.13 1.624-.821.51-.686 1.052-1.928 1.787-4.123zm-16.69 4.55c-1.716 0-3.06.593-3.817 1.49-.759.898-.927 2.1-.277 3.294.279.503.695.828 1.154.942.459.115.962.02 1.421-.322.478-.359.762-.918.617-1.538-.141-.606-.697-1.26-1.843-1.844.16-.125.429-.254.755-.346.35-.099.74-.161 1.056-.161.464 0 .816.041 1.072.129.256.087.416.219.528.402.223.367.227.958.227 1.82v3.238c-2.297.775-3.863 1.374-4.848 2.407-.992 1.04-1.397 2.507-1.397 4.985 0 1.92.37 3.17.966 3.938.596.769 1.42 1.055 2.299 1.055.96 0 1.676-.345 2.217-.805.515-.438.856-.976 1.112-1.442.157.69.341 1.252.723 1.635.4.4 1.01.612 1.998.612 1.135 0 1.848-.348 2.266-1.023.418-.674.544-1.668.544-2.98v-.04h-1.242v.04c0 .942-.015 1.458-.081 1.732-.034.137-.076.21-.13.25-.054.04-.127.056-.228.056a.41.41 0 0 1-.203-.04c-.044-.026-.075-.065-.097-.145-.045-.16-.049-.464-.049-.99V11.17c0-1.875-.513-3.062-1.364-3.777-.852-.715-2.038-.95-3.38-.95zm0 .081c1.33 0 2.5.238 3.33.934.83.697 1.332 1.853 1.332 3.713v11.62c0 .527-.003.831.048 1.015a.307.307 0 0 0 .139.193.478.478 0 0 0 .243.049c.108 0 .2-.018.276-.073.076-.055.127-.143.163-.29.069-.286.08-.813.081-1.715h1.08c-.003 1.283-.138 2.257-.536 2.899-.403.65-1.075.974-2.193.974-.976 0-1.56-.198-1.94-.58-.382-.38-.563-.95-.724-1.683l-.024-.112-.057.104c-.256.477-.616 1.049-1.145 1.498-.53.45-1.22.773-2.16.773-.86 0-1.655-.267-2.234-1.014-.58-.748-.942-1.98-.942-3.89 0-2.469.4-3.909 1.373-4.928.972-1.02 2.523-1.626 4.84-2.408l.024-.008v-.032-3.254c0-.862.008-1.46-.235-1.86-.122-.2-.307-.343-.577-.435-.27-.092-.627-.137-1.096-.137-.328 0-.723.06-1.08.161-.358.101-.673.243-.845.395l-.04.04.048.024c1.184.588 1.731 1.242 1.868 1.828.137.586-.128 1.114-.585 1.458-.441.328-.922.415-1.356.306-.434-.109-.827-.416-1.096-.902-.637-1.168-.471-2.33.268-3.205.738-.874 2.055-1.458 3.752-1.458zm-10.729-.08c-1.576 0-2.972.831-3.972 2.48-1 1.65-1.608 4.108-1.608 7.385 0 3.595.558 5.998 1.535 7.505.977 1.507 2.378 2.118 4.045 2.118 1.583 0 2.79-.342 3.55-1.297.758-.954 1.062-2.513.868-4.944v-.04h-1.429v.048c.048 2.04-.101 3.153-.439 3.745a1.172 1.172 0 0 1-.65.555c-.266.097-.59.121-.966.121-.552 0-.966-.067-1.283-.274-.317-.207-.541-.55-.699-1.111-.315-1.122-.357-3.108-.357-6.49v-.532H78.37v-.04c0-3.418-.33-5.72-1.088-7.176-.758-1.456-1.955-2.053-3.655-2.053zm0 .08c1.68 0 2.835.58 3.582 2.014.743 1.426 1.077 3.706 1.08 7.094H72.14v.612c0 3.384.036 5.363.357 6.507.16.572.393.94.731 1.16.338.22.773.298 1.332.298.38 0 .708-.027.99-.13a1.28 1.28 0 0 0 .7-.595c.35-.615.49-1.738.446-3.745h1.267c.186 2.396-.12 3.925-.853 4.848-.738.929-1.913 1.256-3.484 1.256-1.647 0-3.017-.584-3.98-2.07-.963-1.485-1.518-3.878-1.518-7.464 0-3.267.603-5.714 1.591-7.345.989-1.63 2.36-2.44 3.907-2.44zm-27.143-.08c-1.12 0-2.187.349-2.973 1.095-.785.746-1.291 1.882-1.291 3.439 0 1.457.25 2.487.772 3.446.522.96 1.317 1.848 2.395 3.06.934 1.054 1.632 1.815 2.096 2.521.463.706.69 1.36.69 2.215 0 .682-.097 1.202-.365 1.554-.269.351-.704.54-1.422.54-.605 0-1.1-.135-1.494-.572-.394-.438-.693-1.183-.885-2.392l-.252-1.66-.008-.04H42.252V25.61h1.267l.009-.031c.063-.3.172-.593.3-.782a.574.574 0 0 1 .195-.193c.063-.031.117-.032.179.008a3.935 3.935 0 0 0 2.989 1.321c1.393 0 2.483-.473 3.224-1.297.74-.823 1.129-1.994 1.129-3.406 0-1.473-.262-2.536-.788-3.52-.526-.982-1.317-1.886-2.38-3.051-1.013-1.101-1.709-1.856-2.152-2.561-.443-.705-.633-1.36-.633-2.263 0-.522.084-.944.316-1.232.233-.288.615-.451 1.219-.451.605 0 1.073.118 1.42.459.35.341.58.915.691 1.836l.228 1.788.008.032h1.495V6.758h-1.243v.04c-.032.336-.05.595-.082.757a.41.41 0 0 1-.057.161c-.009.01-.016.015-.024.016a.083.083 0 0 1-.032-.008h-.009c-.291-.258-1.414-1.28-3.037-1.28zm0 .08c1.592 0 2.707 1.008 2.997 1.265l.008.008c.03.014.06.02.09.016a.115.115 0 0 0 .072-.04.443.443 0 0 0 .074-.202c.031-.165.052-.418.08-.733h1.073v5.348h-1.34l-.22-1.756c-.112-.93-.346-1.516-.714-1.876-.368-.361-.862-.484-1.478-.484-.62 0-1.033.173-1.284.484-.25.31-.333.749-.333 1.28 0 .915.192 1.588.642 2.303.45.716 1.155 1.476 2.168 2.577 1.062 1.165 1.844 2.065 2.364 3.036.52.972.78 2.015.78 3.479 0 1.397-.39 2.553-1.113 3.358-.724.805-1.785 1.256-3.16 1.256-1.562 0-2.517-.815-2.931-1.288l-.009-.008a.253.253 0 0 0-.26-.016.629.629 0 0 0-.227.217c-.132.194-.234.487-.3.781h-1.13v-5.79h1.349l.244 1.619c.193 1.217.49 1.975.901 2.432.411.456.94.604 1.56.604.731 0 1.207-.197 1.494-.572.286-.375.382-.912.382-1.602 0-.87-.237-1.549-.707-2.263-.47-.715-1.17-1.468-2.104-2.52-1.078-1.213-1.871-2.105-2.387-3.053s-.764-1.958-.764-3.406c0-1.54.5-2.645 1.267-3.375.768-.73 1.814-1.079 2.916-1.079zm38.846 7.997l-.056.032c-1.129.624-1.777 1.088-2.136 1.925-.36.837-.43 2.031-.43 4.139 0 1.198.021 1.97.178 2.448.078.24.194.41.357.515.163.107.372.145.634.145.607 0 .983-.258 1.194-.684.21-.426.26-1.01.26-1.683V14.52zm-.08.145v6.692c0 .668-.053 1.247-.253 1.65-.2.405-.536.637-1.12.637-.253 0-.44-.043-.585-.137-.145-.094-.25-.24-.325-.467-.15-.456-.179-1.228-.179-2.424 0-2.106.073-3.292.423-4.107.34-.795.963-1.245 2.038-1.844z"/>
</svg>
