<svg xmlns="http://www.w3.org/2000/svg" width="148" height="26" viewBox="0 0 148 26">
    <g fill="none" fill-rule="nonzero">
        <path fill="#C1C1C1" d="M2.11 15.899V8.315H0V6.242l2.11-.282V3.373l4.555-.636V5.96h3.02v2.364h-3.02v7.192c0 1.35.379 2.043 1.714 2.043.475 0 1.123-.05 1.454-.118v1.754c-.73.429-2.29.794-3.733.794-2.715 0-3.987-1.19-3.987-4.091H2.11zm30.366-8.735c1.143 0 1.761.202 1.761 4.224l-3.818.223c.051-3.647.604-4.447 2.057-4.447zm-2.02 6.082h8.21c0-5.75-1.986-7.583-6.114-7.583-4.101 0-6.792 2.627-6.792 7.138 0 4.66 2.44 7.238 7.17 7.238 2.542 0 4.595-1.132 5.233-1.993v-1.333c-.955.287-1.937.472-3.699.472-2.485 0-3.767-1.283-4.008-3.95v.011zm-20.23 5.207l1.46-.668V2.877l-1.536-.71V.925l5.678-.912h.385V7.47h.153a7.077 7.077 0 0 1 4.751-1.81c2.325 0 3.479 1.151 3.479 3.664v8.458l1.476.67v1.261h-7.517v-1.26l1.476-.671v-7.434c0-1.39-.61-1.91-1.85-1.91-.678 0-1.323.122-1.883.347v8.999l1.476.672v1.26H10.24v-1.265l-.012.001z"/>
        <path fill="#AEAEAE" d="M109.86 6.556v1.246l1.534.709v9.285l-1.463.676v1.266h7.505v-1.25l-1.463-.675V5.658h-.385l-5.728.91v-.012zm15.56 10.51v-3.703l-1.066.101c-1.06.102-1.93.802-1.93 2.114 0 1.511.836 2.01 1.715 2.01.509 0 1.026-.25 1.279-.524l.002.001zm-3.231-9.563l-.967 2.796h-2.37V6.703c1.28-.395 2.84-1.04 5.254-1.04 3.674 0 5.882 1.08 5.882 4.153v7.969l1.459.675v1.033c-.448.24-1.463.546-2.57.546-1.435 0-2.72-.456-2.933-1.942h-.136c-.61 1.216-2.24 1.958-3.953 1.958-2.444 0-3.988-1.57-3.988-3.849 0-2.802 1.85-3.258 4.87-3.883l2.63-.456V10.08c0-1.759-.543-2.634-2.29-2.634-.238 0-.662.03-.934.058h.046zm9.631 10.952l1.46-.659V8.511l-1.536-.71V6.57l5.68-.895h.384v1.824h.153a7.074 7.074 0 0 1 4.751-1.807c2.325 0 3.479 1.148 3.479 3.664v8.458l1.476.676v1.266h-7.517v-1.25l1.476-.661v-7.495c0-1.39-.61-1.91-1.85-1.91-.678 0-1.323.122-1.883.347v8.999l1.46.672v1.26h-7.5v-1.265l-.033.003zM103.483 2.889l-1.53-.693V.947l5.725-.912h.385v17.34l1.46.793v1.182l-5.43.624h-.374v-1.418h-.153c-.577.726-1.748 1.486-3.461 1.486-2.512 0-5.515-1.587-5.515-6.838 0-5.52 3.071-7.513 6.72-7.513.763 0 1.662.17 2.222.574V2.89h-.049zm0 14.418v-9.27c-.356-.27-.73-.495-1.561-.495-1.432 0-2.528 1.283-2.528 5.149 0 3.387.865 4.862 2.677 4.862.704 0 1.1-.141 1.409-.266l.003.02zm-56.8 6.973c-2.5 0-3.36-.878-3.36-1.824 0-.658.177-1.114.53-1.536h4.841c1.132 0 1.646.338 1.646 1.047.003 1.418-.79 2.313-3.657 2.313zm.04-17.019c1 0 1.645.44 1.645 3.174 0 2.736-.646 3.02-1.63 3.02-.985 0-1.62-.227-1.62-3.016 0-2.786.629-3.174 1.626-3.174l-.022-.004zm3.037 9.506h-4.921c-.526 0-.967-.406-.967-.878 0-.372.271-.76.61-1.013.747.22 1.358.287 2.274.287 3.547 0 5.973-1.604 5.973-4.592 0-1.334-.56-2.094-1.442-2.87v-.102l2.274.794.305.016V5.656h-.255l-3.5.692h-.195c-.872-.32-2.087-.658-3.19-.658-3.547 0-6 1.75-6 4.724 0 1.811.916 3.16 2.285 3.906v.144c-.79.554-2.307 1.691-2.307 3.148 0 1.064.706 2.116 2.182 2.432v.147c-1.553.32-3.292.827-3.292 2.6 0 1.823 2.655 3.174 6.984 3.174 5.379 0 7.707-2.06 7.707-5.319 0-2.684-1.493-3.933-4.53-3.933l.005.054zM84.222 6.569v1.25l1.544.709v9.285l-1.459.676v1.266h7.906v-1.25l-1.884-.675v-7.65c.78-.37 1.807-.496 3.038-.496.403 0 .882.05 1.158.123v-4c-.152-.05-.453-.073-.678-.073-1.51 0-2.744.967-3.55 2.802h-.136v-2.89h-.39l-5.549.908v.015zM77.91 17.087v-3.714l-1.052.101c-1.052.102-1.917.81-1.917 2.128 0 1.52.831 2.009 1.713 2.009.51 0 1.029-.253 1.28-.524h-.024zm-3.24-9.572l-.968 2.802h-2.376V6.703c1.29-.395 2.851-1.04 5.26-1.04 3.683 0 5.889 1.08 5.889 4.153v7.969l1.459.675v1.033c-.441.24-1.46.546-2.562.546-1.426 0-2.715-.456-2.919-1.942h-.136c-.61 1.216-2.24 1.958-3.943 1.958-2.438 0-3.97-1.57-3.97-3.849 0-2.802 1.86-3.258 4.88-3.883l2.643-.456V10.08c0-1.759-.533-2.634-2.29-2.634-.23 0-.662.03-.937.058l-.03.012zm-18.904.996L54.24 7.8V6.57l5.736-.895h.39v9.639c0 1.562.768 1.84 1.926 1.84.848 0 1.188-.152 1.646-.326V8.51L62.393 7.8V6.556l5.718-.909h.373v11.717l1.527.794v1.188l-5.565.608h-.4l-.006-1.823h-.153c-.879 1.08-2.33 1.874-4.19 1.874-2.767 0-3.95-1.959-3.95-4.34V8.51l.02.002zM113.593 0a2.444 2.444 0 0 1 2.452 2.441 2.448 2.448 0 0 1-2.454 2.442c-1.357 0-2.46-1.08-2.46-2.432 0-1.35 1.103-2.43 2.46-2.43l.002-.021zm33.343 18.97l2.925.007-2.925-.007z"/>
    </g>
</svg>
