<svg xmlns="http://www.w3.org/2000/svg" width="127" height="26" viewBox="0 0 127 26">
    <path fill="#AEAEAE" fill-rule="nonzero" d="M12.692 25.659l2.284-22.62c.085-1.182.338-1.351.761-1.351h.254V.423H12.27v1.265h.254c.508 0 .76.337.677 1.35l-1.355 13.505L10.322 3.04c-.169-1.098.085-1.351.677-1.351h.085V.423H5.923v1.265h.254c.508 0 .508.169.592 1.35L7.193 6.5l-1.27 10.973L4.569 3.039c-.17-1.182.085-1.351.592-1.351h.085V.423H0v1.265h.254c.592 0 .592.169.677 1.35L3.3 25.66h3.384l1.354-11.648L9.307 25.66h3.385zM34.52 10.804c0-1.604 0-2.11 1.015-2.11.677 0 .677.253.677 1.604v13.504c0 .506-.17.59-.424.59h-.17v1.266h5.162v-1.266h-.254c-.338 0-.425-.168-.425-.675V9.537c0-2.363-.507-3.207-2.792-3.207a2.716 2.716 0 0 0-2.876 1.857c-.254-1.266-.931-1.857-2.708-1.857-1.438 0-2.2.424-2.792 1.857V6.33l-4.485.338v1.266h.17c.253 0 .507.253.507.928v14.771c0 .59-.17.76-.508.76h-.169v1.265h4.992v-1.266h-.17c-.253 0-.337-.084-.337-.506V10.804c0-1.604 0-2.11.93-2.11.678 0 .678.253.678 1.604v13.504c0 .506-.17.59-.425.59h-.254v1.266h5.077v-1.266h-.085c-.338 0-.507-.168-.507-.675V10.804h.173zm35.705 14.854h6.262v-1.266h-.425c-.508 0-.677-.253-.677-1.35v-9.79h3.3v9.706c0 1.097-.169 1.35-.677 1.35h-.508v1.265h6.177v-1.265h-.508c-.508 0-.677-.253-.677-1.35V3.038c0-1.181.085-1.35.677-1.35h.508V.423h-6.175v1.265h.507c.508 0 .677.169.677 1.35v8.778h-3.384V3.04c0-1.182.17-1.351.761-1.351h.425V.423h-6.263v1.265h.508c.508 0 .677.169.677 1.35v20.595c0 .507-.169.675-.677.675h-.508v1.35zm45.943 0h4.91v-1.266h-.173c-.339 0-.339-.084-.339-.506V10.804c0-1.604 0-2.11 1.016-2.11.76 0 .76.253.76 1.604v13.504c0 .506-.168.59-.337.59h-.252v1.266H127v-1.266h-.254c-.338 0-.424-.168-.424-.675V9.537c0-2.363-.592-3.207-2.877-3.207-1.523 0-2.37.424-2.961 1.857V0l-4.738.423v1.265h.508c.338 0 .508.169.508.929v21.016c0 .59-.085.76-.508.76h-.17v1.265h.085zm-96.709.254c4.146 0 4.738-3.46 4.738-9.791 0-6.33-.592-9.791-4.738-9.791-4.146 0-4.738 3.376-4.738 9.79 0 6.331.592 9.792 4.738 9.792zm30.798-.254h4.992v-1.266h-.254c-.254 0-.254-.084-.254-.506V10.804c0-1.604 0-2.11 1.015-2.11.677 0 .762.253.762 1.604v13.504c0 .506-.17.59-.424.59h-.254v1.266h5.248v-1.266h-.169c-.338 0-.424-.168-.424-.675V9.537c0-2.363-.508-3.207-2.877-3.207-1.438 0-2.37.424-2.877 1.857V6.33l-4.823.338v1.266h.508c.254 0 .508.253.508.928v14.771c0 .59-.17.76-.508.76h-.169v1.266zm45.182.338c1.692 0 2.37-.846 2.708-1.856.338 1.519.677 1.856 2.623 1.856 2.284 0 2.538-1.35 2.538-3.967h-1.1c0 1.941 0 2.11-.424 2.11-.338 0-.338-.169-.338-1.266V10.298c0-2.532-.849-3.882-3.807-3.882-2.37 0-4.654.675-4.57 3.292.086 1.181.509 2.363 1.778 2.278 1.1-.084 1.607-.675 1.607-1.604a3.323 3.323 0 0 0-1.269-2.278 3.065 3.065 0 0 1 1.523-.254c.849 0 1.015.676 1.015 1.857v3.545c-4.315 1.435-5.16 2.026-5.16 7.428 0 3.798 1.015 5.32 2.876 5.32v-.004zm-7.36 0c3.214 0 3.976-.928 3.806-6.245h-1.353c0 4.22-.17 4.473-1.608 4.473-1.777 0-1.777-.759-1.777-7.933V15.7h5.16c0-7.258-.848-9.284-4.23-9.284-3.13 0-4.738 1.94-4.738 9.875 0 7.595 1.27 9.705 4.739 9.705zm-42.306-.084c3.131 0 3.977-.929 3.892-6.246h-1.353c0 4.22-.17 4.474-1.693 4.474-1.946 0-1.776-.76-1.776-7.934v-.59h4.992c0-7.26-.677-9.285-4.06-9.285-3.132 0-4.739 1.941-4.739 9.875 0 7.678 1.27 9.706 4.738 9.706zm57.79-.254h5.16v-1.266h-.424c-.338 0-.424-.168-.424-.675V0l-4.823.423v1.265h.508c.338 0 .424.169.424.675v21.439c0 .506 0 .59-.254.59h-.254v1.266h.086zm-37.06.254c2.37 0 3.554-1.52 3.554-3.883 0-5.486-4.909-8.609-4.909-12.491 0-1.182.424-1.52 1.27-1.52 1.268 0 1.437.507 1.607 2.364l.169 1.772h1.44V6.5h-1.1c-.085.675-.255.929-.255.846a3.32 3.32 0 0 0-2.622-1.012c-2.031 0-3.892.928-3.892 3.967 0 4.811 4.908 8.44 4.908 12.07 0 1.603-.338 1.856-1.523 1.856-1.1 0-1.438-.506-1.607-2.87l-.085-1.604h-1.523v5.909h1.269c.085-.675.338-1.097.508-.847.424.424.93 1.098 2.792 1.098zm43.069-4.22c0 3.038.424 4.22 3.469 4.22 2.115 0 2.623-.846 2.623-3.207v-3.208h-1.27v3.376c0 1.097-.084 1.266-.507 1.266s-.508-.169-.508-1.097V7.934h2.369V6.499h-2.37V1.688h-1.353c-.931 4.304-1.777 4.811-3.046 4.811h-.338v1.435h.848v13.758h.083zM19.46 24.224c-.93 0-.93-.507-.93-8.101 0-7.678 0-8.187.93-8.187.849 0 .849.506.849 8.1 0 7.679 0 8.188-.849 8.188zm41.882-16.88c3.215-2.364 3.892-4.221 2.792-5.825C63.627.591 62.273 0 61.342.846c-1.184.929-.848 2.617 1.27 3.628-.425.423-1.27 1.35-2.031 2.026l.76.843zm35.706 16.204c-.762 0-.762-.846-.762-3.375 0-4.643 0-5.234 1.523-6.078v7.934c0 1.266-.17 1.52-.761 1.52zm-52.205-9.37c.085-5.993.169-6.33 1.015-6.33.846 0 .761.337.761 6.33h-1.776zm42.305 0c.085-5.993.169-6.33 1.015-6.33.846 0 .677.337.677 6.33h-1.692z"/>
</svg>
