<svg xmlns="http://www.w3.org/2000/svg" width="57" height="18" viewBox="0 0 57 18">
    <g fill="none" fill-rule="evenodd">
        <path fill="#FFF" d="M39.386 6.524c-.455-.38-1.029-.576-1.591-.735-.525-.15-1.173-.232-1.618-.572-.55-.42-.25-1.263.47-1.305 1.104-.065 1.805.08 2.124-.316a.866.866 0 0 0-.343-1.289c-.738-.377-2.305-.213-2.77-.051-.14.049-.278.098-.408.164-.843.407-1.443 1.17-1.445 2.28.087 1.58 1.16 2.143 2.544 2.5.522.135 1.168.246 1.562.647.734.75.144 1.977-.872 2.067-.596.053-2.274-.114-2.903.294-.67.433-.504 1.322.235 1.507.5.124 1.104.119 1.614.119 1.195 0 2.295-.13 3.237-.972 1.188-1.064 1.475-3.243.164-4.338"/>
        <path d="M39.386 6.524c-.455-.38-1.029-.576-1.591-.735-.525-.15-1.173-.232-1.618-.572-.55-.42-.25-1.263.47-1.305 1.104-.065 1.805.08 2.124-.316a.866.866 0 0 0-.343-1.289c-.738-.377-2.305-.213-2.77-.051-.14.049-.278.098-.408.164-.843.407-1.443 1.17-1.445 2.28.087 1.58 1.16 2.143 2.544 2.5.522.135 1.168.246 1.562.647.734.75.144 1.977-.872 2.067-.596.053-2.274-.114-2.903.294-.67.433-.504 1.322.235 1.507.5.124 1.104.119 1.614.119 1.195 0 2.295-.13 3.237-.972 1.188-1.064 1.475-3.243.164-4.338"/>
        <path fill="#FFF" d="M16.478 9.818c-1.58 0-2.886-1.299-2.881-2.898.005-1.574 1.308-2.883 2.887-2.892 1.576-.008 2.884 1.34 2.881 2.899a2.899 2.899 0 0 1-2.887 2.891m0-7.794c-2.05.039-3.904 1.28-4.623 3.216-.722 1.945-.087 4.19 1.526 5.489 1.606 1.293 3.927 1.45 5.685.363 1.724-1.064 2.634-3.114 2.25-5.103-.445-2.313-2.515-3.921-4.838-3.965"/>
        <path d="M16.478 9.818c-1.58 0-2.886-1.299-2.881-2.898.005-1.574 1.308-2.883 2.887-2.892 1.576-.008 2.884 1.34 2.881 2.899a2.899 2.899 0 0 1-2.887 2.891m0-7.794c-2.05.039-3.904 1.28-4.623 3.216-.722 1.945-.087 4.19 1.526 5.489 1.606 1.293 3.927 1.45 5.685.363 1.724-1.064 2.634-3.114 2.25-5.103-.445-2.313-2.515-3.921-4.838-3.965"/>
        <path fill="#FFF" d="M51.866 9.83c-1.588 0-2.831-1.485-2.735-3.063.092-1.519 1.375-2.765 2.91-2.725 1.615.042 2.81 1.552 2.672 3.124-.13 1.482-1.355 2.665-2.847 2.665m4.823-4.125c-.587-2.177-2.506-3.58-4.836-3.58h-.005c-2.04.038-3.898 1.263-4.582 3.214-.715 2.038.082 4.346 1.874 5.542 1.5 1.001 3.544 1.12 5.143.284 1.956-1.024 2.981-3.327 2.406-5.46"/>
        <path d="M51.866 9.83c-1.588 0-2.831-1.485-2.735-3.063.092-1.519 1.375-2.765 2.91-2.725 1.615.042 2.81 1.552 2.672 3.124-.13 1.482-1.355 2.665-2.847 2.665m4.823-4.125c-.587-2.177-2.506-3.58-4.836-3.58h-.005c-2.04.038-3.898 1.263-4.582 3.214-.715 2.038.082 4.346 1.874 5.542 1.5 1.001 3.544 1.12 5.143.284 1.956-1.024 2.981-3.327 2.406-5.46"/>
        <path fill="#FFF" d="M45.416 9.83c-.012-.002-1.019-.018-1.335-.46-.198-.275-.213-.62-.22-.947-.011-.506 0-1.013 0-1.519v-2.88c.765.008 1.817.018 1.821-1.014.004-1.034-1.062-.998-1.82-.991.015-.567.095-1.246-.422-1.61-.583-.41-1.435-.058-1.589.626-.065.292-.035.634-.035.93 0 .66.015 1.318.015 1.978v4.253c0 1.423.449 2.777 1.872 3.391.576.249 1.69.459 2.257.044.789-.58.373-1.71-.544-1.802"/>
        <path d="M45.416 9.83c-.012-.002-1.019-.018-1.335-.46-.198-.275-.213-.62-.22-.947-.011-.506 0-1.013 0-1.519v-2.88c.765.008 1.817.018 1.821-1.014.004-1.034-1.062-.998-1.82-.991.015-.567.095-1.246-.422-1.61-.583-.41-1.435-.058-1.589.626-.065.292-.035.634-.035.93 0 .66.015 1.318.015 1.978v4.253c0 1.423.449 2.777 1.872 3.391.576.249 1.69.459 2.257.044.789-.58.373-1.71-.544-1.802"/>
        <path fill="#FFF" d="M5.06 9.71c-1.63 0-2.942-1.262-2.842-2.92.092-1.533 1.392-2.78 2.935-2.779 1.673.002 3.072 1.389 2.834 3.134C7.779 8.668 6.597 9.71 5.06 9.71m5.176-6.446c-.11-1.345-1.964-1.583-2.35-.33-1.609-1.07-3.7-1.2-5.38-.17A4.876 4.876 0 0 0 .223 7.45c.45 3.901 5.368 5.731 8.254 3.048 1.708-1.588 1.987-4.137.807-6.106.549-.115.909-.513.955-1.098a.1.1 0 0 0-.003-.03v-.001"/>
        <path d="M5.06 9.71c-1.63 0-2.942-1.262-2.842-2.92.092-1.533 1.392-2.78 2.935-2.779 1.673.002 3.072 1.389 2.834 3.134C7.779 8.668 6.597 9.71 5.06 9.71m5.176-6.446c-.11-1.345-1.964-1.583-2.35-.33-1.609-1.07-3.7-1.2-5.38-.17A4.876 4.876 0 0 0 .223 7.45c.45 3.901 5.368 5.731 8.254 3.048 1.708-1.588 1.987-4.137.807-6.106.549-.115.909-.513.955-1.098a.1.1 0 0 0-.003-.03v-.001"/>
        <path fill="#FFF" d="M32.238 3.807c0-.77.041-1.525-.856-1.64-.735-.062-1.16.412-1.163 1.126-.004.894.005 2.22-.029 3.704-.038 1.698-1.507 3.136-3.2 2.686a2.452 2.452 0 0 1-1.73-1.663c-.423-1.342-.068-3.2-.273-3.66-.454-1.02-1.901-.759-1.993.323-.064.75-.01 1.538 0 2.29.036 2.777 2.169 5.104 5.071 4.84a4.614 4.614 0 0 0 3.688-2.488c.365-.7.485-1.463.485-2.245V3.807"/>
        <path d="M32.238 3.807c0-.77.041-1.525-.856-1.64-.735-.062-1.16.412-1.163 1.126-.004.894.005 2.22-.029 3.704-.038 1.698-1.507 3.136-3.2 2.686a2.452 2.452 0 0 1-1.73-1.663c-.423-1.342-.068-3.2-.273-3.66-.454-1.02-1.901-.759-1.993.323-.064.75-.01 1.538 0 2.29.036 2.777 2.169 5.104 5.071 4.84a4.614 4.614 0 0 0 3.688-2.488c.365-.7.485-1.463.485-2.245V3.807"/>
        <path fill="#FFF" d="M9.588 12.205a1.039 1.039 0 0 0-.77-.17c-.61.109-.817.687-.865 1.209-.098 1.09-.574 2.063-1.572 2.552-1.696.83-3.605-.261-4.058-2.044-.11-.437-.32-1.6-1.178-1.547-1.283.13-.86 1.78-.54 2.598.344.875.95 1.628 1.712 2.176 1.565 1.125 3.658 1.348 5.36.38a4.806 4.806 0 0 0 2.085-2.404c.288-.732.61-2.214-.174-2.75"/>
        <path d="M9.588 12.205a1.039 1.039 0 0 0-.77-.17c-.61.109-.817.687-.865 1.209-.098 1.09-.574 2.063-1.572 2.552-1.696.83-3.605-.261-4.058-2.044-.11-.437-.32-1.6-1.178-1.547-1.283.13-.86 1.78-.54 2.598.344.875.95 1.628 1.712 2.176 1.565 1.125 3.658 1.348 5.36.38a4.806 4.806 0 0 0 2.085-2.404c.288-.732.61-2.214-.174-2.75"/>
    </g>
</svg>
