<svg xmlns="http://www.w3.org/2000/svg" xmlns:xlink="http://www.w3.org/1999/xlink" preserveAspectRatio="xMidYMid" width="326" height="30" viewBox="0 0 326 30">
  <defs>
    <style>
      .cls-1 {
        fill: #ffffff;
        fill-rule: evenodd;
      }
    </style>
  </defs>
  <path d="M320.135,29.489 L320.135,17.472 L309.383,17.472 L309.383,29.489 L303.519,29.489 L303.519,0.512 L309.383,0.512 L309.383,12.359 L320.135,12.359 L320.135,0.512 L326.000,0.512 L326.000,29.489 L320.135,29.489 ZM294.654,5.579 C292.660,5.325 290.948,5.199 289.517,5.199 C287.662,5.199 286.337,5.446 285.544,5.945 C284.751,6.443 284.163,7.387 283.781,8.779 C283.398,10.170 283.207,12.543 283.207,15.894 C283.207,19.247 283.597,21.571 284.376,22.862 C285.155,24.156 286.713,24.801 289.050,24.801 C290.837,24.801 292.711,24.686 294.672,24.454 C295.659,24.335 296.532,25.103 296.558,26.099 L296.636,29.021 C293.633,29.674 290.927,30.001 288.519,30.001 C286.111,30.001 284.184,29.702 282.740,29.106 C281.295,28.509 280.161,27.557 279.340,26.251 C278.518,24.944 277.952,23.411 277.640,21.648 C277.328,19.887 277.172,17.671 277.172,15.000 C277.172,9.404 277.959,5.505 279.531,3.302 C281.104,1.101 284.000,0.000 288.221,0.000 C290.658,0.000 293.477,0.383 296.678,1.150 L296.576,3.953 C296.540,4.954 295.646,5.704 294.654,5.579 ZM266.742,28.819 L265.742,24.247 L255.628,24.247 L254.627,28.819 C254.542,29.211 254.196,29.489 253.797,29.489 L248.616,29.489 L254.820,1.842 C254.995,1.063 255.683,0.512 256.478,0.512 L264.892,0.512 C265.687,0.512 266.376,1.063 266.550,1.842 L272.754,29.489 L267.573,29.489 C267.174,29.489 266.828,29.211 266.742,28.819 ZM261.705,5.370 L259.665,5.370 L256.734,19.133 L264.637,19.133 L261.705,5.370 ZM232.129,30.001 C227.737,30.001 224.642,28.801 222.844,26.399 C221.044,23.999 220.146,20.241 220.146,15.128 C220.146,10.015 221.044,6.215 222.844,3.729 C224.642,1.242 227.737,0.000 232.129,0.000 C236.520,0.000 239.614,1.242 241.414,3.729 C243.213,6.215 244.113,10.015 244.113,15.128 C244.113,20.241 243.213,23.999 241.414,26.399 C239.614,28.801 236.520,30.001 232.129,30.001 ZM236.803,7.500 C235.953,5.909 234.395,5.114 232.129,5.114 C229.862,5.114 228.304,5.909 227.454,7.500 C226.604,9.092 226.179,11.641 226.179,15.149 C226.179,18.659 226.597,21.157 227.434,22.649 C228.269,24.140 229.834,24.887 232.129,24.887 C234.424,24.887 235.989,24.140 236.825,22.649 C237.660,21.157 238.078,18.659 238.078,15.149 C238.078,11.641 237.653,9.092 236.803,7.500 ZM213.447,5.579 C211.453,5.325 209.740,5.199 208.311,5.199 C206.455,5.199 205.130,5.446 204.338,5.945 C203.544,6.443 202.956,7.387 202.574,8.779 C202.191,10.170 202.000,12.543 202.000,15.894 C202.000,19.247 202.389,21.571 203.169,22.862 C203.948,24.156 205.506,24.801 207.843,24.801 C209.630,24.801 211.504,24.686 213.465,24.454 C214.452,24.335 215.324,25.103 215.351,26.099 L215.429,29.021 C212.426,29.674 209.720,30.001 207.312,30.001 C204.904,30.001 202.977,29.702 201.533,29.106 C200.088,28.509 198.954,27.557 198.134,26.251 C197.311,24.944 196.745,23.411 196.434,21.648 C196.122,19.887 195.966,17.671 195.966,15.000 C195.966,9.404 196.753,5.505 198.325,3.302 C199.896,1.101 202.793,0.000 207.014,0.000 C209.451,0.000 212.270,0.383 215.471,1.150 L215.369,3.953 C215.333,4.954 214.439,5.704 213.447,5.579 ZM182.963,29.489 L177.098,29.489 L177.098,17.770 L168.174,0.512 L174.677,0.512 L179.217,10.382 C179.521,11.043 180.457,11.043 180.760,10.382 L185.300,0.512 L191.802,0.512 L182.963,17.770 L182.963,29.489 ZM162.756,25.632 C161.892,26.982 160.638,27.963 158.996,28.572 C157.353,29.185 155.257,29.489 152.707,29.489 L142.976,29.489 L142.976,0.512 L152.707,0.512 C155.199,0.512 157.254,0.775 158.869,1.299 C160.483,1.826 161.737,2.691 162.629,3.898 C163.522,5.108 164.137,6.528 164.478,8.160 C164.818,9.795 164.987,11.917 164.987,14.531 C164.987,17.146 164.832,19.312 164.520,21.029 C164.208,22.749 163.620,24.284 162.756,25.632 ZM158.783,10.355 C158.670,9.390 158.401,8.510 157.976,7.713 C157.551,6.919 156.920,6.371 156.085,6.072 C155.250,5.773 154.123,5.626 152.707,5.626 L148.840,5.626 L148.840,24.376 L152.707,24.376 C154.832,24.376 156.375,23.836 157.339,22.756 C158.160,21.875 158.670,20.284 158.869,17.982 C158.925,17.075 158.954,15.817 158.954,14.213 C158.954,12.608 158.896,11.320 158.783,10.355 ZM124.491,30.001 C120.099,30.001 117.004,28.801 115.206,26.399 C113.406,23.999 112.507,20.241 112.507,15.128 C112.507,10.015 113.406,6.215 115.206,3.729 C117.004,1.242 120.099,0.000 124.491,0.000 C128.882,0.000 131.976,1.242 133.775,3.729 C135.575,6.215 136.474,10.015 136.474,15.128 C136.474,20.241 135.575,23.999 133.775,26.399 C131.976,28.801 128.882,30.001 124.491,30.001 ZM129.165,7.500 C128.315,5.909 126.757,5.114 124.491,5.114 C122.224,5.114 120.666,5.909 119.816,7.500 C118.966,9.092 118.541,11.641 118.541,15.149 C118.541,18.659 118.959,21.157 119.795,22.649 C120.630,24.140 122.196,24.887 124.491,24.887 C126.785,24.887 128.351,24.140 129.186,22.649 C130.021,21.157 130.440,18.659 130.440,15.149 C130.440,11.641 130.015,9.092 129.165,7.500 ZM106.686,21.179 C106.686,23.991 105.864,26.080 104.221,27.443 C102.578,28.808 100.269,29.489 97.294,29.489 L85.779,29.489 L85.779,0.512 L97.124,0.512 C100.127,0.512 102.379,1.115 103.881,2.322 C105.382,3.530 106.133,5.483 106.133,8.180 C106.133,9.802 105.892,11.085 105.411,12.039 C104.929,12.991 104.108,13.835 102.947,14.574 C104.221,15.113 105.163,15.894 105.772,16.917 C106.381,17.940 106.686,19.362 106.686,21.179 ZM96.827,5.541 L91.642,5.541 L91.642,12.442 L96.869,12.442 C99.079,12.442 100.184,11.292 100.184,8.991 C100.184,6.690 99.065,5.541 96.827,5.541 ZM96.997,17.387 L91.642,17.387 L91.642,24.461 L96.997,24.461 C98.272,24.461 99.213,24.204 99.823,23.693 C100.432,23.182 100.736,22.244 100.736,20.881 C100.736,18.552 99.490,17.387 96.997,17.387 ZM53.343,1.179 L70.518,1.179 L70.518,3.962 L56.484,3.962 L56.484,13.740 L68.070,13.740 L68.070,16.481 L56.484,16.481 L56.484,26.708 L70.518,26.708 L70.518,29.489 L53.343,29.489 L53.343,1.179 ZM42.892,16.685 L28.532,16.685 L28.532,29.489 L25.391,29.489 L25.391,1.179 L28.532,1.179 L28.532,13.861 L42.892,13.861 L42.892,1.179 L45.993,1.179 L45.993,29.489 L42.892,29.489 L42.892,16.685 ZM11.791,29.489 L8.690,29.489 L8.690,4.002 L0.001,4.002 L0.001,1.179 L20.398,1.179 L20.398,4.002 L11.791,4.002 L11.791,29.489 Z" class="cls-1"/>
</svg>
