<?xml version="1.0" encoding="UTF-8"?>
<svg width="33px" height="26px" viewBox="0 0 33 26" version="1.1" xmlns="http://www.w3.org/2000/svg" xmlns:xlink="http://www.w3.org/1999/xlink">
    <!-- Generator: Sketch 47.1 (45422) - http://www.bohemiancoding.com/sketch -->
    <title>Twitter_Logo_Blue</title>
    <desc>Created with Sketch.</desc>
    <defs></defs>
    <g id="Page-1" stroke="none" stroke-width="1" fill="none" fill-rule="evenodd">
        <g id="Homepage" transform="translate(-1199.000000, -4497.000000)" fill="#1DA1F2">
            <g id="Group-2" transform="translate(1019.000000, 4494.000000)">
                <path d="M190.378236,29 C202.831644,29 209.641788,18.9980018 209.641788,10.3250647 C209.641788,10.0408509 209.635848,9.7579167 209.622384,9.47651813 C210.944232,8.55016783 212.093424,7.39424544 213,6.07810885 C211.786788,6.60046855 210.481308,6.95263267 209.111808,7.11131126 C210.509688,6.29897922 211.582848,5.01317072 212.088936,3.48064259 C210.780552,4.23244643 209.332116,4.77924775 207.78996,5.07369892 C206.554572,3.79799978 204.795012,3 202.848012,3 C199.108716,3 196.076544,5.93952101 196.076544,9.56315152 C196.076544,10.0783451 196.136076,10.5790784 196.252104,11.059721 C190.62534,10.7854886 185.63574,8.1735621 182.2968,4.20211834 C181.714812,5.17184931 181.379928,6.29897922 181.379928,7.50096959 C181.379928,9.77826339 182.575188,11.7884909 184.392696,12.964504 C183.282312,12.9313607 182.238852,12.6355019 181.326336,12.1433423 C181.324752,12.1707271 181.324752,12.19824 181.324752,12.2270325 C181.324752,15.4062349 183.658908,18.0600065 186.756552,18.6618335 C186.188028,18.8118103 185.58954,18.8926852 184.97178,18.8926852 C184.535652,18.8926852 184.111404,18.8508402 183.699036,18.7743161 C184.560996,21.3820197 187.060284,23.2796366 190.023948,23.3331266 C187.706292,25.0935633 184.787244,26.1426336 181.615152,26.1426336 C181.068804,26.1426336 180.52998,26.1124334 180,26.0517773 C182.996532,27.9133075 186.554196,29 190.378236,29" id="Twitter_Logo_Blue"></path>
            </g>
        </g>
    </g>
</svg>