<?xml version="1.0" encoding="UTF-8"?>
<svg width="31px" height="31px" viewBox="0 0 31 31" version="1.1" xmlns="http://www.w3.org/2000/svg" xmlns:xlink="http://www.w3.org/1999/xlink">
    <!-- Generator: Sketch 47.1 (45422) - http://www.bohemiancoding.com/sketch -->
    <title>FB-fLogo-printpackaging</title>
    <desc>Created with Sketch.</desc>
    <defs>
        <polygon id="path-1" points="0.00696629213 31 0.00696629213 0.0121910112 30.9875768 0.0121910112 30.9875768 31"></polygon>
    </defs>
    <g id="Page-1" stroke="none" stroke-width="1" fill="none" fill-rule="evenodd">
        <g id="Homepage" transform="translate(-1145.000000, -4495.000000)">
            <g id="Group-2" transform="translate(1019.000000, 4494.000000)">
                <g id="FB-fLogo-printpackaging" transform="translate(126.000000, 1.000000)">
                    <g id="Group-3">
                        <mask id="mask-2" fill="white">
                            <use xlink:href="#path-1"></use>
                        </mask>
                        <g id="Clip-2"></g>
                        <path d="M29.2773521,31 C30.2217491,31 30.9875768,30.2341723 30.9875768,29.2896592 L30.9875768,1.72253184 C30.9875768,0.777786517 30.2217491,0.0121910112 29.2773521,0.0121910112 L1.71022472,0.0121910112 C0.765479401,0.0121910112 0,0.777786517 0,1.72253184 L0,29.2896592 C0,30.2341723 0.765479401,31 1.71022472,31 L29.2773521,31" id="Fill-1" fill="#395185" mask="url(#mask-2)"></path>
                    </g>
                    <path d="M22.0871265,31 L22.0871265,19.1401335 L26.2148588,19.1401335 L26.8328348,14.5180948 L22.0871265,14.5180948 L22.0871265,11.5672422 C22.0871265,10.2289394 22.4724989,9.31703916 24.4623007,9.31703916 L27,9.31589168 L27,5.18210465 C26.5609681,5.12576351 25.0545773,5 23.3020192,5 C19.6431825,5 17.1382024,7.15392967 17.1382024,11.1095135 L17.1382024,14.5180948 L13,14.5180948 L13,19.1401335 L17.1382024,19.1401335 L17.1382024,31 L22.0871265,31" id="Fill-4" fill="#FFFFFE"></path>
                </g>
            </g>
        </g>
    </g>
</svg>